<svg width="50" height="36" viewBox="0 0 50 36" fill="none" xmlns="http://www.w3.org/2000/svg">
<mask id="mask0_23_9" style="mask-type:luminance" maskUnits="userSpaceOnUse" x="0" y="0" width="50" height="36">
<path d="M0 0H50V35.6H0V0Z" fill="white"/>
</mask>
<g mask="url(#mask0_23_9)">
<path d="M31.1677 19.5307L48.8099 34.6443C48.1698 35.2432 47.3063 35.6109 46.3547 35.6109H3.62917C2.6724 35.6109 1.80885 35.2406 1.16615 34.6443L18.8161 19.5307L24.9922 24.9281L31.1677 19.5307ZM48.8177 0.966667C48.1781 0.370313 47.3146 0 46.3578 0H3.62917C2.6776 0 1.81406 0.370313 1.17448 0.974479L24.9922 21.3682L48.8177 0.966667ZM0.0390625 3.12604V32.7109L17.2677 18.0875L0.0390625 3.12604ZM32.7188 18.0875L49.9479 32.7109V3.11563L32.7188 18.0875Z" fill="white"/>
</g>
</svg>
