<svg width="50" height="50" viewBox="0 0 50 50" fill="none" xmlns="http://www.w3.org/2000/svg">
<path d="M28.1251 45.6001C38.148 44.0917 45.8334 35.4438 45.8334 25.0001C45.8334 13.4938 36.5063 4.16675 25.0001 4.16675C13.4938 4.16675 4.16675 13.4938 4.16675 25.0001C4.16675 35.4438 11.8522 44.0938 21.8751 45.6001V31.2501H18.7501C17.9213 31.2501 17.1264 30.9208 16.5404 30.3348C15.9543 29.7487 15.6251 28.9539 15.6251 28.1251C15.6251 27.2963 15.9543 26.5014 16.5404 25.9154C17.1264 25.3293 17.9213 25.0001 18.7501 25.0001H21.8751V20.8334C21.8751 18.8995 22.6433 17.0449 24.0108 15.6774C25.3782 14.31 27.2329 13.5417 29.1667 13.5417H30.2084C31.0372 13.5417 31.8321 13.871 32.4181 14.457C33.0042 15.0431 33.3334 15.8379 33.3334 16.6667C33.3334 17.4955 33.0042 18.2904 32.4181 18.8765C31.8321 19.4625 31.0372 19.7917 30.2084 19.7917H29.1667C28.8905 19.7917 28.6255 19.9015 28.4302 20.0968C28.2348 20.2922 28.1251 20.5571 28.1251 20.8334V25.0001H31.2501C32.0789 25.0001 32.8737 25.3293 33.4598 25.9154C34.0458 26.5014 34.3751 27.2963 34.3751 28.1251C34.3751 28.9539 34.0458 29.7487 33.4598 30.3348C32.8737 30.9208 32.0789 31.2501 31.2501 31.2501H28.1251V45.6001Z" fill="white"/>
</svg>
